<mxfile host="65bd71144e">
    <diagram id="wL4qC6lOxr1z816Y_CRW" name="Top Down">
        <mxGraphModel dx="690" dy="564" grid="1" gridSize="10" guides="1" tooltips="1" connect="1" arrows="1" fold="1" page="1" pageScale="1" pageWidth="827" pageHeight="1169" math="0" shadow="0">
            <root>
                <mxCell id="0"/>
                <mxCell id="1" parent="0"/>
                <mxCell id="9yt9649yg9Wz7KRFWL_L-12" style="edgeStyle=orthogonalEdgeStyle;shape=connector;rounded=0;html=1;entryX=0.5;entryY=0;entryDx=0;entryDy=0;labelBackgroundColor=default;fontFamily=Helvetica;fontSize=11;fontColor=default;endArrow=classic;strokeColor=default;" edge="1" parent="1" source="9yt9649yg9Wz7KRFWL_L-1" target="9yt9649yg9Wz7KRFWL_L-3">
                    <mxGeometry relative="1" as="geometry"/>
                </mxCell>
                <mxCell id="9yt9649yg9Wz7KRFWL_L-13" style="edgeStyle=orthogonalEdgeStyle;shape=connector;rounded=0;html=1;entryX=0.5;entryY=0;entryDx=0;entryDy=0;labelBackgroundColor=default;fontFamily=Helvetica;fontSize=11;fontColor=default;endArrow=classic;strokeColor=default;" edge="1" parent="1" source="9yt9649yg9Wz7KRFWL_L-1" target="9yt9649yg9Wz7KRFWL_L-2">
                    <mxGeometry relative="1" as="geometry">
                        <Array as="points">
                            <mxPoint x="414" y="210"/>
                            <mxPoint x="240" y="210"/>
                        </Array>
                    </mxGeometry>
                </mxCell>
                <mxCell id="9yt9649yg9Wz7KRFWL_L-14" style="edgeStyle=orthogonalEdgeStyle;shape=connector;rounded=0;html=1;entryX=0.5;entryY=0;entryDx=0;entryDy=0;labelBackgroundColor=default;fontFamily=Helvetica;fontSize=11;fontColor=default;endArrow=classic;strokeColor=default;" edge="1" parent="1" source="9yt9649yg9Wz7KRFWL_L-1" target="9yt9649yg9Wz7KRFWL_L-4">
                    <mxGeometry relative="1" as="geometry">
                        <Array as="points">
                            <mxPoint x="414" y="210"/>
                            <mxPoint x="600" y="210"/>
                        </Array>
                    </mxGeometry>
                </mxCell>
                <mxCell id="9yt9649yg9Wz7KRFWL_L-1" value="Circumference Program" style="rounded=0;whiteSpace=wrap;html=1;" vertex="1" parent="1">
                    <mxGeometry x="354" y="140" width="120" height="60" as="geometry"/>
                </mxCell>
                <mxCell id="9yt9649yg9Wz7KRFWL_L-9" style="edgeStyle=orthogonalEdgeStyle;shape=connector;rounded=0;html=1;entryX=0.5;entryY=0;entryDx=0;entryDy=0;labelBackgroundColor=default;fontFamily=Helvetica;fontSize=11;fontColor=default;endArrow=classic;strokeColor=default;" edge="1" parent="1" source="9yt9649yg9Wz7KRFWL_L-2" target="9yt9649yg9Wz7KRFWL_L-5">
                    <mxGeometry relative="1" as="geometry"/>
                </mxCell>
                <mxCell id="9yt9649yg9Wz7KRFWL_L-2" value="Input" style="rounded=0;whiteSpace=wrap;html=1;" vertex="1" parent="1">
                    <mxGeometry x="180" y="230" width="120" height="60" as="geometry"/>
                </mxCell>
                <mxCell id="9yt9649yg9Wz7KRFWL_L-10" style="edgeStyle=orthogonalEdgeStyle;shape=connector;rounded=0;html=1;entryX=0.5;entryY=0;entryDx=0;entryDy=0;labelBackgroundColor=default;fontFamily=Helvetica;fontSize=11;fontColor=default;endArrow=classic;strokeColor=default;" edge="1" parent="1" source="9yt9649yg9Wz7KRFWL_L-3" target="9yt9649yg9Wz7KRFWL_L-6">
                    <mxGeometry relative="1" as="geometry"/>
                </mxCell>
                <mxCell id="9yt9649yg9Wz7KRFWL_L-3" value="Process" style="rounded=0;whiteSpace=wrap;html=1;" vertex="1" parent="1">
                    <mxGeometry x="354" y="230" width="120" height="60" as="geometry"/>
                </mxCell>
                <mxCell id="9yt9649yg9Wz7KRFWL_L-11" style="edgeStyle=orthogonalEdgeStyle;shape=connector;rounded=0;html=1;entryX=0.5;entryY=0;entryDx=0;entryDy=0;labelBackgroundColor=default;fontFamily=Helvetica;fontSize=11;fontColor=default;endArrow=classic;strokeColor=default;" edge="1" parent="1" source="9yt9649yg9Wz7KRFWL_L-4" target="9yt9649yg9Wz7KRFWL_L-7">
                    <mxGeometry relative="1" as="geometry"/>
                </mxCell>
                <mxCell id="9yt9649yg9Wz7KRFWL_L-4" value="Output" style="rounded=0;whiteSpace=wrap;html=1;" vertex="1" parent="1">
                    <mxGeometry x="540" y="230" width="120" height="60" as="geometry"/>
                </mxCell>
                <mxCell id="9yt9649yg9Wz7KRFWL_L-5" value="Asks user for radius" style="rounded=0;whiteSpace=wrap;html=1;" vertex="1" parent="1">
                    <mxGeometry x="180" y="330" width="120" height="60" as="geometry"/>
                </mxCell>
                <mxCell id="9yt9649yg9Wz7KRFWL_L-6" value="circumference = tau * radius" style="rounded=0;whiteSpace=wrap;html=1;" vertex="1" parent="1">
                    <mxGeometry x="354" y="330" width="120" height="60" as="geometry"/>
                </mxCell>
                <mxCell id="9yt9649yg9Wz7KRFWL_L-7" value="tells the user the circumference" style="rounded=0;whiteSpace=wrap;html=1;" vertex="1" parent="1">
                    <mxGeometry x="540" y="330" width="120" height="60" as="geometry"/>
                </mxCell>
            </root>
        </mxGraphModel>
    </diagram>
    <diagram id="qgQAC9EBEmR325JJTc2F" name="Flowchart">
        <mxGraphModel dx="690" dy="564" grid="1" gridSize="10" guides="1" tooltips="1" connect="1" arrows="1" fold="1" page="1" pageScale="1" pageWidth="827" pageHeight="1169" math="0" shadow="0">
            <root>
                <mxCell id="bNZVklL9ce1kWGsipBL4-0"/>
                <mxCell id="bNZVklL9ce1kWGsipBL4-1" parent="bNZVklL9ce1kWGsipBL4-0"/>
                <mxCell id="bAo4IwYvHTatvyLYNwzL-5" style="edgeStyle=orthogonalEdgeStyle;shape=connector;rounded=0;html=1;entryX=0.5;entryY=0;entryDx=0;entryDy=0;labelBackgroundColor=default;fontFamily=Helvetica;fontSize=11;fontColor=default;endArrow=classic;strokeColor=default;" edge="1" parent="bNZVklL9ce1kWGsipBL4-1" source="bAo4IwYvHTatvyLYNwzL-0" target="bAo4IwYvHTatvyLYNwzL-1">
                    <mxGeometry relative="1" as="geometry"/>
                </mxCell>
                <mxCell id="bAo4IwYvHTatvyLYNwzL-0" value="Start" style="strokeWidth=2;html=1;shape=mxgraph.flowchart.terminator;whiteSpace=wrap;fontFamily=Helvetica;fontSize=11;fontColor=default;" vertex="1" parent="bNZVklL9ce1kWGsipBL4-1">
                    <mxGeometry x="364" y="130" width="100" height="60" as="geometry"/>
                </mxCell>
                <mxCell id="bAo4IwYvHTatvyLYNwzL-6" style="edgeStyle=orthogonalEdgeStyle;shape=connector;rounded=0;html=1;entryX=0.5;entryY=0;entryDx=0;entryDy=0;labelBackgroundColor=default;fontFamily=Helvetica;fontSize=11;fontColor=default;endArrow=classic;strokeColor=default;" edge="1" parent="bNZVklL9ce1kWGsipBL4-1" source="bAo4IwYvHTatvyLYNwzL-1" target="bAo4IwYvHTatvyLYNwzL-2">
                    <mxGeometry relative="1" as="geometry"/>
                </mxCell>
                <mxCell id="bAo4IwYvHTatvyLYNwzL-1" value="get radius" style="shape=parallelogram;html=1;strokeWidth=2;perimeter=parallelogramPerimeter;whiteSpace=wrap;rounded=1;arcSize=12;size=0.23;fontFamily=Helvetica;fontSize=11;fontColor=default;" vertex="1" parent="bNZVklL9ce1kWGsipBL4-1">
                    <mxGeometry x="364" y="240" width="100" height="60" as="geometry"/>
                </mxCell>
                <mxCell id="bAo4IwYvHTatvyLYNwzL-7" style="edgeStyle=orthogonalEdgeStyle;shape=connector;rounded=0;html=1;entryX=0.5;entryY=0;entryDx=0;entryDy=0;labelBackgroundColor=default;fontFamily=Helvetica;fontSize=11;fontColor=default;endArrow=classic;strokeColor=default;" edge="1" parent="bNZVklL9ce1kWGsipBL4-1" source="bAo4IwYvHTatvyLYNwzL-2" target="bAo4IwYvHTatvyLYNwzL-3">
                    <mxGeometry relative="1" as="geometry"/>
                </mxCell>
                <mxCell id="bAo4IwYvHTatvyLYNwzL-2" value="circumference = tau * radius" style="rounded=1;whiteSpace=wrap;html=1;absoluteArcSize=1;arcSize=14;strokeWidth=2;fontFamily=Helvetica;fontSize=11;fontColor=default;" vertex="1" parent="bNZVklL9ce1kWGsipBL4-1">
                    <mxGeometry x="327" y="340" width="174" height="100" as="geometry"/>
                </mxCell>
                <mxCell id="bAo4IwYvHTatvyLYNwzL-8" style="edgeStyle=orthogonalEdgeStyle;shape=connector;rounded=0;html=1;entryX=0.5;entryY=0;entryDx=0;entryDy=0;entryPerimeter=0;labelBackgroundColor=default;fontFamily=Helvetica;fontSize=11;fontColor=default;endArrow=classic;strokeColor=default;" edge="1" parent="bNZVklL9ce1kWGsipBL4-1" source="bAo4IwYvHTatvyLYNwzL-3" target="bAo4IwYvHTatvyLYNwzL-4">
                    <mxGeometry relative="1" as="geometry"/>
                </mxCell>
                <mxCell id="bAo4IwYvHTatvyLYNwzL-3" value="Show circumference" style="shape=parallelogram;html=1;strokeWidth=2;perimeter=parallelogramPerimeter;whiteSpace=wrap;rounded=1;arcSize=12;size=0.23;fontFamily=Helvetica;fontSize=11;fontColor=default;" vertex="1" parent="bNZVklL9ce1kWGsipBL4-1">
                    <mxGeometry x="364" y="480" width="100" height="60" as="geometry"/>
                </mxCell>
                <mxCell id="bAo4IwYvHTatvyLYNwzL-4" value="Stop" style="strokeWidth=2;html=1;shape=mxgraph.flowchart.terminator;whiteSpace=wrap;fontFamily=Helvetica;fontSize=11;fontColor=default;" vertex="1" parent="bNZVklL9ce1kWGsipBL4-1">
                    <mxGeometry x="364" y="585" width="100" height="60" as="geometry"/>
                </mxCell>
            </root>
        </mxGraphModel>
    </diagram>
</mxfile>